<?xml version="1.0" encoding="UTF-8" standalone="no"?>
<svg
   width="1370.134"
   height="792"
   viewBox="0 0 1370.134 792"
   version="1.1"
   id="svg32"
   sodipodi:docname="bg_hero_2.svg"
   inkscape:version="1.1.2 (0a00cf5339, 2022-02-04)"
   xmlns:inkscape="http://www.inkscape.org/namespaces/inkscape"
   xmlns:sodipodi="http://sodipodi.sourceforge.net/DTD/sodipodi-0.dtd"
   xmlns="http://www.w3.org/2000/svg"
   xmlns:svg="http://www.w3.org/2000/svg">
  <sodipodi:namedview
     id="namedview34"
     pagecolor="#ffffff"
     bordercolor="#666666"
     borderopacity="1.0"
     inkscape:pageshadow="2"
     inkscape:pageopacity="0.0"
     inkscape:pagecheckerboard="0"
     showgrid="false"
     inkscape:zoom="0.93567488"
     inkscape:cx="681.3264"
     inkscape:cy="340.93039"
     inkscape:window-width="1920"
     inkscape:window-height="1011"
     inkscape:window-x="0"
     inkscape:window-y="32"
     inkscape:window-maximized="1"
     inkscape:current-layer="Group_182"
     showguides="false" />
  <defs
     id="defs17">
    <linearGradient
       id="linear-gradient"
       x1="1441.2368"
       y1="1.5507109"
       x2="1538.2576"
       y2="2592.6436"
       gradientUnits="userSpaceOnUse"
       gradientTransform="scale(1.3152818,0.76029332)">
      <stop
         offset="0"
         stop-color="#C9F73A"
         id="stop2" />
      <stop
         offset="1"
         stop-color="#00000"
         id="stop4" />
    </linearGradient>
    <linearGradient
       id="linear-gradient-2"
       x1="1"
       y1="0.01"
       x2="0"
       y2="1"
       gradientUnits="objectBoundingBox">
      <stop
         offset="0"
         stop-color="#fff"
         stop-opacity="0.161"
         id="stop7" />
      <stop
         offset="1"
         stop-color="#fff"
         stop-opacity="0"
         id="stop9" />
    </linearGradient>
    <linearGradient
       id="linear-gradient-3"
       x1="1"
       y1="0.01"
       x2="0"
       y2="1"
       gradientUnits="objectBoundingBox">
      <stop
         offset="0"
         stop-color="#fff"
         stop-opacity="0.2"
         id="stop12" />
      <stop
         offset="1"
         stop-color="#fff"
         stop-opacity="0"
         id="stop14" />
    </linearGradient>
  </defs>
  <g
     id="Group_182"
     data-name="Group 182"
     transform="translate(0)">
    <path
       id="Path_152"
       data-name="Path 152"
       d="M1436,788s138.5-112.93,310-121.387,208.5,80.593,376,87.558S2281.5,638.754,2430,628.8s188.5,92.533,286,85.568,90-47.759,90-47.759V-4H1436Z"
       transform="translate(-1436 4)"
       fill="url(#linear-gradient)"
       style="fill-opacity:1;fill:url(#linear-gradient)" />
    <path
       id="Path_4"
       data-name="Path 4"
       d="M 861.73163,42.819528 C 866.14024,17.87843 798.74131,-31.150102 733.18288,-47.86744 714.5754,-52.611918 607.05958,-80.028987 570.41818,-6.646606 562.50978,9.1943924 547.47057,46.61171 562.12315,62.054783 575.78414,76.452606 642.98759,73.051547 737.3261,46.939345 836.77947,19.420244 859.03226,58.094819 861.73163,42.819528 Z"
       opacity="0.14"
       fill="url(#linear-gradient-3)"
       style="opacity:1;fill:#000000;fill-opacity:1;stroke-width:1.2718" />
    <path
       id="Path_196"
       data-name="Path 196"
       d="M-1436,44h316.021C-1102.053,249.709-834.214,278.539-986,346c-162,72-212,170-168,270,19.387,44.062,32.951,76.089,42.058,98.13-4.58.088-9.274.248-14.058.484C-1297.5,723.071-1436,836-1436,836Z"
       transform="translate(1436 -44)"
       fill="url(#linear-gradient-2)" />
    <path
       id="Path_197"
       data-name="Path 197"
       d="M-466,432.543c98-120-200-10-234-116-25.527-79.584,5.034-151.278,48.3-210h232.179c51.83,55.043,162.617,101.094,297.518,92,27.563-1.858,45.6,3.178,56,13.757v83.669c-35,95.453-144.1,243.066-218,360.574-28.631,45.528-59.231,63.959-88.053,63.953C-466.046,720.477-541,524.381-466,432.543Z"
       transform="translate(1436 -106.543)"
       fill="url(#linear-gradient-3)" />
    <circle
       id="Ellipse_68"
       data-name="Ellipse 68"
       cx="13.5"
       cy="13.5"
       r="13.5"
       transform="translate(483 556)"
       fill="#fff"
       opacity="0.2" />
    <circle
       id="Ellipse_69"
       data-name="Ellipse 69"
       cx="15.5"
       cy="15.5"
       r="15.5"
       transform="translate(322 45)"
       fill="#fff"
       opacity="0.2" />
    <circle
       id="Ellipse_70"
       data-name="Ellipse 70"
       cx="8"
       cy="8"
       r="8"
       transform="translate(1147 45)"
       fill="#fff"
       opacity="0.2" />
    <g
       id="Path_155"
       data-name="Path 155"
       transform="matrix(0.259, 0.966, -0.966, 0.259, 73.396, 351.263)"
       fill="none"
       opacity="0.2">
      <path
         d="M25.7,12.271a12.26,12.26,0,0,1,21.289,0L66.734,46.817A12.26,12.26,0,0,1,56.089,65.159H16.608A12.26,12.26,0,0,1,5.964,46.817Z"
         stroke="none"
         id="path25" />
      <path
         d="M 36.34889602661133 14.0933837890625 C 35.6055793762207 14.0933837890625 33.75717926025391 14.30253219604492 32.65016174316406 16.23984909057617 L 12.90961456298828 50.7857666015625 C 11.81108093261719 52.70821380615234 12.55358123779297 54.39961624145508 12.92381286621094 55.03758239746094 C 13.29404449462891 55.6755485534668 14.39419555664063 57.15940093994141 16.60836410522461 57.15940093994141 L 56.08943176269531 57.15940093994141 C 58.30359649658203 57.15940093994141 59.40374755859375 55.6755485534668 59.77397918701172 55.03758239746094 C 60.14419555664063 54.39961624145508 60.88671112060547 52.70823287963867 59.78816223144531 50.78578186035156 L 40.04764556884766 16.23984909057617 C 38.94059753417969 14.30253219604492 37.09221267700195 14.0933837890625 36.34889602661133 14.0933837890625 M 36.34889602661133 6.0933837890625 C 40.49459838867188 6.0933837890625 44.64030456542969 8.152500152587891 46.99357986450195 12.27073287963867 L 66.73411560058594 46.81666564941406 C 71.40454864501953 54.98991394042969 65.50296020507813 65.15940093994141 56.08943176269531 65.15940093994141 L 16.60836410522461 65.15940093994141 C 7.194831848144531 65.15940093994141 1.293243408203125 54.98991394042969 5.963661193847656 46.81666564941406 L 25.7042121887207 12.27073287963867 C 28.05748748779297 8.152500152587891 32.20319366455078 6.0933837890625 36.34889602661133 6.0933837890625 Z"
         stroke="none"
         fill="#fff"
         id="path27" />
    </g>
    <path
       id="Path_195"
       data-name="Path 195"
       d="M-1412.5,47a23.348,23.348,0,0,1-16.617-6.883A23.345,23.345,0,0,1-1436,23.5a23.347,23.347,0,0,1,6.883-16.618A23.348,23.348,0,0,1-1412.5,0a23.348,23.348,0,0,1,16.617,6.883A23.347,23.347,0,0,1-1389,23.5a23.345,23.345,0,0,1-6.883,16.617A23.348,23.348,0,0,1-1412.5,47Zm0-40.286A16.805,16.805,0,0,0-1429.285,23.5,16.8,16.8,0,0,0-1412.5,40.286,16.8,16.8,0,0,0-1395.714,23.5,16.805,16.805,0,0,0-1412.5,6.714Z"
       transform="translate(2668.999 556)"
       fill="#fff"
       stroke="rgba(0,0,0,0)"
       stroke-width="1"
       opacity="0.2" />
    <path
       style="fill:#c9f73a;fill-opacity:1"
       id="path1422"
       sodipodi:type="arc"
       sodipodi:cx="818.448"
       sodipodi:cy="-13.030511"
       sodipodi:rx="0.33806047"
       sodipodi:ry="13.380362"
       sodipodi:start="0"
       sodipodi:end="6.1402603"
       sodipodi:open="true"
       sodipodi:arc-type="arc"
       d="M 818.78606,-13.030511 A 0.33806047,13.380362 0 0 1 818.46007,0.34131006 0.33806047,13.380362 0 0 1 818.1108,-12.07513 a 0.33806047,13.380362 0 0 1 0.30103,-14.258943 0.33806047,13.380362 0 0 1 0.37078,11.397678" />
  </g>
</svg>
